<svg version="1.0" xmlns="http://www.w3.org/2000/svg" width="600.000000pt" height="600.000000pt" viewBox="0 0 600.000000 600.000000" preserveAspectRatio="xMidYMid meet" style="width: 761.992px; height: auto;"> <g transform="translate(0.000000,600.000000) scale(0.100000,-0.100000)" fill="#000000" stroke="none"> <path d="M2347 3619 c-27 -16 -38 -53 -26 -89 13 -35 35 -50 78 -50 34 0 71 39 71 75 0 37 -37 75 -73 75 -18 0 -40 -5 -50 -11z"></path> <path d="M1795 3554 c-30 -33 -32 -63 -4 -98 16 -20 29 -26 59 -26 71 0 104 76 55 125 -33 34 -78 33 -110 -1z"></path> <path d="M2090 3545 c-69 -7 -126 -13 -127 -14 -2 0 -3 -8 -3 -16 0 -18 9 -18 145 -5 146 14 175 20 175 36 0 16 -14 16 -190 -1z"></path> <path d="M2481 3487 c-9 -12 2 -25 58 -70 55 -45 71 -54 80 -43 8 10 -1 23 -42 56 -28 24 -59 50 -68 57 -14 11 -18 11 -28 0z"></path> <path d="M2652 3357 c-38 -41 -27 -102 22 -122 54 -23 105 11 106 71 0 67 -82 100 -128 51z"></path> <path d="M2797 3246 c-7 -17 4 -26 111 -100 74 -51 102 -61 102 -37 0 6 -152 118 -196 144 -7 4 -14 1 -17 -7z"></path> <path d="M3040 3088 c-46 -50 -13 -128 55 -128 22 0 43 8 55 20 12 12 20 33 20 55 0 22 -8 43 -20 55 -27 27 -83 27 -110 -2z" class=""></path> <path d="M4115 3068 c-46 -25 -59 -74 -30 -115 31 -44 111 -37 134 13 17 38 14 53 -18 85 -31 31 -53 35 -86 17z"></path>  <path d="M3100 2923 c0 -9 37 -207 45 -240 6 -27 35 -31 35 -5 -1 9 -11 69 -23 132 -18 89 -27 116 -40 118 -9 2 -17 0 -17 -5z"></path> <path d="M4085 2883 c-43 -109 -115 -308 -115 -319 0 -8 6 -14 14 -14 8 0 36 61 75 164 33 90 61 169 61 175 0 18 -27 13 -35 -6z"></path> <path d="M3148 2614 c-81 -44 -22 -163 66 -134 65 21 71 111 10 139 -32 14 -43 14 -76 -5z"></path> <path d="M3300 2536 c0 -9 10 -18 23 -20 25 -6 284 -43 392 -57 39 -5 80 -11 93 -14 17 -4 22 -1 22 15 0 11 -6 20 -12 20 -7 0 -40 4 -73 9 -120 18 -341 50 -392 56 -44 6 -53 4 -53 -9z"></path> <path d="M3881 2494 c-12 -15 -21 -37 -21 -49 0 -37 37 -75 74 -75 52 0 76 24 76 75 0 34 -5 47 -22 59 -35 25 -83 20 -107 -10z"></path> </g> </svg>