<svg version="1.0" xmlns="http://www.w3.org/2000/svg" width="600.000000pt" height="600.000000pt" viewBox="0 0 600.000000 600.000000" preserveAspectRatio="xMidYMid meet" style="width: 1124.56px; height: auto;"> <g transform="translate(0.000000,600.000000) scale(0.100000,-0.100000)" fill="#ffffff" stroke="none"> <path d="M2355 3618 c-28 -16 -35 -28 -35 -65 0 -22 8 -38 26 -52 54 -42 118 -13 118 54 0 60 -56 93 -109 63z"></path> <path d="M1807 3560 c-52 -41 -25 -130 41 -130 45 0 72 25 72 69 0 46 -16 69 -55 77 -22 4 -38 0 -58 -16z"></path> <path d="M2125 3548 c-146 -13 -165 -17 -165 -33 0 -17 -4 -17 125 -5 169 16 195 21 195 36 0 15 -2 16 -155 2z"></path> <path d="M2481 3486 c-8 -9 7 -26 59 -69 53 -43 71 -53 79 -43 8 9 -7 26 -59 69 -53 43 -71 53 -79 43z"></path> <path d="M2656 3359 c-53 -41 -18 -129 51 -129 32 0 73 42 73 75 0 33 -41 75 -73 75 -13 0 -36 -9 -51 -21z"></path> <path d="M2796 3245 c-6 -17 188 -160 205 -150 17 11 7 21 -86 87 -117 83 -112 80 -119 63z"></path> <path d="M3045 3085 c-14 -13 -25 -36 -25 -50 0 -33 41 -75 73 -75 39 0 77 36 77 74 0 68 -78 99 -125 51z"></path> <path d="M4097 3052 c-24 -26 -25 -77 -3 -101 26 -28 86 -28 111 -1 43 48 10 120 -55 120 -23 0 -43 -7 -53 -18z"></path>  <path d="M3100 2922 c0 -4 9 -48 19 -97 10 -50 22 -107 25 -127 4 -24 12 -38 21 -38 19 0 19 -2 -5 122 -28 146 -29 148 -45 148 -8 0 -15 -4 -15 -8z"></path> <path d="M4031 2738 c-64 -171 -69 -188 -48 -188 14 0 140 326 132 341 -4 5 -10 9 -14 9 -4 0 -36 -73 -70 -162z" class=""></path> <path d="M3165 2620 c-49 -19 -64 -82 -30 -120 27 -30 90 -27 111 5 25 38 21 75 -10 102 -29 25 -39 27 -71 13z" class=""></path> <path d="M3300 2535 c0 -8 2 -15 4 -15 2 0 82 -12 178 -26 343 -51 348 -51 348 -29 0 8 -8 15 -17 15 -22 1 -96 11 -321 44 -203 31 -192 30 -192 11z" class=""></path> <path d="M3902 2513 c-15 -6 -42 -56 -42 -78 0 -9 11 -27 25 -40 49 -50 125 -20 125 49 0 53 -57 90 -108 69z" class=""></path> </g> </svg>