<?xml version="1.0" standalone="no"?>
<!DOCTYPE svg PUBLIC "-//W3C//DTD SVG 20010904//EN"
 "http://www.w3.org/TR/2001/REC-SVG-20010904/DTD/svg10.dtd">
<svg version="1.0" xmlns="http://www.w3.org/2000/svg"
 width="600.000000pt" height="600.000000pt" viewBox="0 0 600.000000 600.000000"
 preserveAspectRatio="xMidYMid meet">
<g transform="translate(0.000000,600.000000) scale(0.100000,-0.100000)"
fill="#000000" stroke="none">
<path d="M2730 4099 c-60 -8 -166 -45 -175 -59 -3 -5 14 -1 38 10 56 25 116
35 197 32 88 -2 110 -6 110 -16 0 -4 7 -6 15 -2 9 3 15 0 15 -10 0 -13 8 -15
38 -12 25 3 55 -3 92 -20 91 -39 119 -55 114 -64 -3 -4 2 -8 10 -8 9 0 16 3
16 8 -1 14 -121 85 -183 107 -53 20 -201 48 -225 44 -4 -1 -32 -5 -62 -10z"/>
<path d="M2735 4053 c-264 -35 -474 -264 -476 -517 -1 -66 -12 -94 -22 -54
-11 41 2 148 28 224 25 73 77 164 94 164 5 0 11 9 14 21 4 13 10 18 18 13 7
-4 10 -3 5 4 -3 6 18 31 50 56 64 53 63 60 -2 15 -51 -35 -135 -132 -165 -191
-50 -97 -75 -223 -64 -319 l7 -56 52 52 c28 28 77 69 108 89 37 25 58 47 63
64 10 43 63 119 112 162 69 60 139 83 243 78 89 -5 152 -28 228 -85 20 -15 32
-19 32 -11 0 17 -115 84 -160 94 -19 4 -30 9 -23 11 18 6 110 -24 142 -47 16
-11 32 -20 36 -20 15 0 110 -99 147 -153 71 -104 113 -227 128 -374 10 -98 35
-142 110 -192 l50 -34 31 29 31 29 -5 125 c-4 86 -13 155 -30 221 -29 110 -89
249 -109 249 -9 0 -10 -2 -2 -8 27 -17 86 -189 110 -317 16 -92 19 -271 4
-280 -6 -4 -10 31 -10 97 0 276 -101 526 -281 693 -57 52 -142 104 -199 119
-14 4 3 -9 38 -29 37 -21 60 -41 56 -47 -5 -7 -2 -8 5 -4 15 10 53 -23 44 -37
-3 -6 -1 -7 5 -3 14 9 53 -24 45 -38 -3 -6 -3 -8 1 -5 8 7 63 -39 58 -48 -2
-3 4 -10 14 -17 9 -7 14 -18 10 -24 -5 -8 -1 -10 10 -5 12 4 15 3 10 -5 -4 -7
-2 -12 3 -12 6 0 10 -3 9 -7 -3 -11 34 -73 44 -73 4 0 4 -7 1 -17 -5 -12 -3
-14 7 -8 10 6 12 4 7 -8 -3 -10 -3 -17 2 -17 14 0 54 -107 45 -121 -4 -8 -3
-9 4 -5 7 4 12 1 13 -6 1 -16 5 -39 17 -98 18 -82 25 -237 12 -245 -9 -6 -9
-10 1 -16 23 -14 -19 -23 -48 -10 -20 9 -23 14 -13 25 9 12 7 13 -11 9 -15 -4
-20 -3 -15 6 4 7 2 10 -5 9 -29 -6 -53 88 -52 204 0 21 -4 35 -9 32 -5 -3 -6
7 -3 23 5 22 4 25 -5 13 -9 -12 -11 -9 -8 17 3 18 1 30 -4 27 -4 -3 -9 1 -10
8 -3 29 -4 34 -16 55 -7 12 -12 29 -12 37 0 9 -5 16 -11 16 -5 0 -7 5 -4 10 3
6 2 10 -4 10 -6 0 -13 11 -17 25 -3 14 -10 25 -15 25 -5 0 -9 6 -9 13 0 6 -24
36 -54 64 -29 29 -51 55 -48 58 3 3 -2 5 -12 5 -11 0 -15 5 -10 13 4 6 4 9 -1
5 -15 -14 -46 13 -85 77 -46 72 -100 124 -159 155 -39 19 -54 21 -116 13z
m124 -36 c14 -7 25 -19 24 -25 -2 -7 1 -11 5 -9 13 3 82 -55 82 -70 0 -7 4
-13 8 -13 5 0 13 -10 19 -23 l11 -23 -64 20 c-44 14 -60 23 -51 29 7 6 5 6 -8
1 -11 -4 -49 -9 -83 -10 -35 -1 -66 -5 -69 -8 -3 -2 -10 -3 -17 0 -6 2 -40 -9
-74 -26 -35 -17 -67 -28 -72 -25 -6 3 -7 0 -4 -8 3 -8 -7 -22 -23 -32 -27 -18
-28 -18 -13 0 10 13 11 16 2 11 -7 -4 -17 -19 -23 -33 -5 -13 -14 -21 -19 -18
-6 4 -9 1 -8 -7 2 -7 -2 -12 -9 -11 -8 2 -10 -4 -6 -14 4 -11 3 -14 -5 -9 -8
4 -10 2 -6 -8 3 -8 -3 -20 -14 -27 -12 -7 -17 -19 -15 -30 3 -11 -1 -21 -11
-25 -9 -3 -14 -10 -11 -14 4 -7 -108 -90 -121 -90 -2 0 -3 20 -2 45 0 24 4 43
7 41 3 -2 7 8 7 22 3 47 8 72 16 72 4 0 5 6 2 14 -3 8 9 25 28 41 18 15 27 24
21 21 -19 -10 -3 27 25 59 15 18 29 24 40 20 13 -5 14 -4 5 6 -9 9 -10 16 -1
26 9 11 14 10 32 -4 19 -16 19 -16 7 -1 -14 19 -8 53 8 43 5 -3 13 0 16 6 4 5
13 8 21 5 8 -3 13 0 11 7 -4 20 103 68 138 62 19 -3 25 -2 17 4 -18 11 40 23
76 15 22 -4 24 -3 12 6 -21 15 54 4 89 -13z m-12 -143 c-3 -3 -12 -4 -19 -1
-8 3 -5 6 6 6 11 1 17 -2 13 -5z"/>
<path d="M2885 3930 c-3 -6 1 -7 9 -4 18 7 21 14 7 14 -6 0 -13 -4 -16 -10z"/>
<path d="M2483 3825 c0 -8 4 -12 9 -9 5 3 6 10 3 15 -9 13 -12 11 -12 -6z"/>
<path d="M2530 3826 c0 -2 7 -7 16 -10 8 -3 12 -2 9 4 -6 10 -25 14 -25 6z"/>
<path d="M2382 3804 c-7 -8 -8 -14 -3 -14 10 0 25 19 20 25 -2 1 -10 -3 -17
-11z"/>
<path d="M3254 3953 l-32 -4 49 -46 c27 -25 68 -73 90 -107 30 -44 50 -63 76
-72 56 -20 137 -80 172 -129 89 -123 83 -293 -15 -435 -36 -52 -33 -71 3 -22
35 47 66 115 80 172 l13 55 -4 -57 c-11 -142 -137 -298 -307 -382 -105 -51
-173 -71 -298 -87 -111 -13 -164 -46 -204 -124 -13 -26 -16 -27 -22 -12 -4 9
-1 25 6 35 11 14 11 15 -1 5 -21 -19 -29 -16 -26 10 5 39 15 50 34 35 10 -8
13 -9 9 -1 -4 7 1 14 13 18 11 4 18 11 15 16 -4 5 4 9 17 9 13 0 28 4 34 9 5
6 50 15 99 21 50 6 108 15 130 21 69 17 184 63 189 75 3 7 -23 0 -57 -16 -69
-31 -176 -56 -280 -65 -85 -7 -163 -36 -212 -78 l-37 -32 54 -70 54 -70 54 -3
c73 -4 226 14 323 39 82 21 212 74 235 96 19 18 7 16 -37 -7 -119 -60 -270
-97 -442 -106 -83 -5 -118 -4 -123 5 -5 8 16 11 77 11 163 0 347 43 482 113
176 92 307 229 367 385 22 57 7 45 -23 -18 -15 -32 -29 -48 -37 -45 -7 3 -10
0 -7 -5 8 -13 -45 -101 -57 -94 -5 3 -12 -3 -15 -15 -5 -19 -15 -25 -35 -22
-5 0 -7 -2 -7 -7 5 -30 -10 -36 -41 -17 -13 7 -13 6 -2 -7 11 -14 10 -20 -8
-38 -12 -12 -28 -19 -35 -16 -9 3 -12 -1 -10 -13 3 -15 -1 -17 -17 -13 -13 3
-19 1 -15 -5 4 -6 -11 -19 -32 -29 -22 -10 -37 -23 -34 -27 3 -5 -4 -6 -15 -3
-14 5 -24 1 -30 -10 -6 -11 -17 -15 -31 -11 -11 3 -19 2 -16 -3 2 -4 -31 -19
-75 -34 -88 -29 -94 -30 -85 -16 3 5 -6 3 -21 -4 -14 -8 -47 -14 -73 -14 -25
-1 -66 -5 -91 -11 -62 -14 -73 -14 -66 4 3 8 1 15 -4 15 -6 0 -10 -4 -10 -9 0
-5 -11 -11 -25 -13 -18 -4 -25 -1 -25 11 1 22 25 52 36 43 5 -4 6 -3 2 3 -13
16 -9 21 34 50 34 23 57 29 108 32 64 3 115 8 115 12 0 2 7 4 15 6 28 5 155
50 160 56 3 3 21 5 41 5 22 -1 36 3 36 11 0 8 -6 9 -19 2 -10 -5 -18 -8 -18
-5 0 3 22 17 49 32 27 14 64 44 81 65 17 22 36 36 42 33 6 -4 9 -3 6 2 -7 11
17 35 27 26 4 -4 6 -2 4 3 -6 24 27 64 79 95 74 44 139 105 163 152 50 98 -7
297 -122 422 -99 108 -203 160 -363 181 -56 7 -94 14 -86 15 60 9 83 9 140 0
36 -6 94 -23 130 -38 66 -27 76 -33 111 -64 10 -10 19 -15 19 -11 0 4 11 -5
25 -20 14 -15 30 -27 34 -27 5 0 19 -15 32 -34 12 -18 32 -39 43 -46 20 -12
20 -12 6 6 -101 127 -184 189 -303 230 -70 24 -197 37 -263 27z m179 -74 c9
-6 22 -7 27 -4 6 3 19 -1 31 -9 12 -8 28 -12 37 -9 11 5 13 3 7 -7 -5 -8 -3
-11 6 -8 8 3 26 -3 40 -13 14 -10 30 -15 35 -11 4 4 3 -1 -4 -10 -11 -14 -11
-16 6 -11 13 3 27 -5 44 -26 14 -16 28 -28 31 -25 2 3 3 -6 2 -19 -2 -20 1
-24 16 -20 13 4 19 0 19 -11 0 -10 4 -15 8 -12 8 5 82 -112 82 -130 0 -5 -5
-2 -10 6 -6 9 -10 10 -10 3 0 -6 7 -18 15 -27 9 -8 15 -19 15 -23 0 -4 4 -30
11 -56 6 -27 9 -66 5 -87 -6 -38 -63 -136 -73 -126 -3 3 -14 -5 -24 -18 -20
-26 -89 -70 -89 -58 0 5 5 13 12 20 7 7 9 12 5 12 -4 0 2 16 13 35 17 30 19
50 17 133 -3 65 -9 108 -20 129 -9 17 -14 40 -11 50 4 13 3 15 -4 5 -7 -11
-11 -8 -15 9 -4 15 0 31 11 44 17 20 17 20 -4 2 -19 -15 -23 -16 -33 -3 -7 8
-10 20 -6 25 3 7 0 8 -10 5 -11 -5 -14 -2 -9 10 3 9 1 16 -6 16 -6 0 -8 5 -4
13 5 8 2 8 -9 -2 -10 -8 -17 -9 -17 -3 0 6 -13 19 -30 28 -22 14 -29 24 -26
40 4 18 1 21 -12 17 -10 -4 -12 -8 -4 -11 7 -2 10 -8 7 -13 -6 -8 -44 8 -56
24 -3 4 -12 7 -20 5 -15 -3 -15 4 -3 37 6 19 6 19 -8 1 -14 -17 -15 -18 -21
-2 -4 10 -5 22 -2 26 3 5 -4 7 -15 5 -11 -2 -18 0 -15 5 3 6 -8 23 -25 40
l-31 30 53 -6 c29 -3 61 -10 71 -15z"/>
<path d="M3766 3595 c-9 -26 -7 -32 5 -12 6 10 9 21 6 23 -2 3 -7 -2 -11 -11z"/>
<path d="M2610 3780 c-9 -6 -10 -10 -3 -10 6 0 15 5 18 10 8 12 4 12 -15 0z"/>
<path d="M2900 3733 c-138 -14 -279 -52 -382 -104 -65 -33 -79 -48 -20 -23
123 54 230 88 303 99 86 12 247 17 263 8 13 -7 -15 -12 -100 -16 -206 -9 -367
-57 -518 -151 -81 -51 -194 -160 -238 -231 -39 -62 -70 -135 -64 -149 2 -6 5
-3 5 7 1 9 5 17 11 17 5 0 9 3 8 8 -3 12 49 107 58 105 5 -1 8 5 6 13 -2 8 2
14 7 14 5 0 13 9 16 20 4 11 11 17 17 14 7 -4 8 -2 4 4 -4 7 -2 12 3 12 6 0
36 25 66 55 30 30 55 52 55 50 0 -3 12 5 26 18 14 12 43 31 64 43 22 12 37 24
34 27 -3 3 4 3 17 0 14 -4 20 -2 16 4 -4 7 7 13 28 17 19 4 35 12 35 18 0 6 7
5 17 -3 9 -8 14 -9 10 -3 -6 10 11 20 48 29 6 2 13 4 18 5 4 1 10 3 15 4 4 1
12 4 18 8 19 12 124 23 231 23 58 0 99 4 96 9 -4 5 -1 6 5 2 19 -11 14 -43 -8
-59 -11 -8 -18 -16 -15 -19 3 -3 -10 -17 -29 -32 -20 -15 -37 -22 -41 -16 -3
5 -11 10 -17 10 -7 0 -7 -4 1 -13 9 -11 -1 -14 -52 -16 -34 -1 -82 -7 -107
-12 -25 -6 -58 -12 -74 -14 -16 -2 -32 -8 -35 -12 -8 -11 -43 -10 -61 1 -13 8
-13 7 -2 -6 11 -14 8 -18 -19 -32 -18 -9 -37 -16 -42 -16 -6 0 -22 -10 -35
-22 -14 -13 -22 -17 -18 -10 11 19 -8 14 -27 -8 -9 -11 -13 -20 -9 -20 4 0 -9
-10 -28 -22 -19 -12 -39 -21 -43 -20 -5 1 -6 -1 -3 -6 7 -12 -54 -93 -65 -87
-5 4 -6 0 -4 -8 4 -8 -11 -23 -42 -39 -66 -36 -136 -104 -168 -162 -25 -44
-27 -56 -21 -112 27 -262 237 -466 504 -489 45 -4 85 -12 88 -16 8 -13 -186
-3 -199 10 -6 6 -22 11 -35 11 -24 0 -111 45 -124 65 -4 5 -11 10 -15 10 -10
0 -81 45 -71 45 4 0 -13 19 -37 41 -25 23 -42 46 -38 52 4 6 1 7 -7 2 -10 -6
-12 -4 -7 9 4 10 3 15 -3 11 -6 -3 -10 -1 -10 6 0 7 -3 9 -6 6 -9 -9 35 -73
86 -125 99 -102 232 -160 386 -169 134 -8 139 -4 70 65 -31 31 -70 77 -86 102
-22 33 -44 50 -88 71 -219 99 -280 350 -136 559 19 27 31 50 26 50 -23 0 -83
-106 -107 -190 l-15 -55 5 50 c6 60 60 174 111 233 105 123 342 231 507 232
27 0 64 8 86 19 42 22 95 78 106 112 9 27 25 6 19 -24 -2 -11 -1 -17 3 -13 3
3 12 1 19 -5 10 -8 9 -14 -6 -29 -11 -11 -26 -17 -35 -14 -8 4 -15 1 -15 -6 0
-6 6 -8 13 -4 9 5 9 4 0 -6 -10 -11 -15 -11 -28 0 -9 7 -15 9 -14 4 3 -18 -1
-37 -7 -31 -4 3 -15 2 -26 -4 -11 -6 -41 -13 -66 -15 -136 -13 -245 -39 -310
-76 -18 -10 -38 -15 -44 -12 -6 4 -8 2 -4 -4 3 -6 1 -12 -6 -15 -7 -2 -6 -3 2
-1 8 1 56 18 105 38 70 27 115 37 204 45 118 11 181 32 248 83 l32 25 -26 39
c-14 21 -42 56 -61 77 -35 36 -38 37 -102 35 -36 0 -81 -3 -100 -5z m-596
-570 c-7 -16 -14 -36 -14 -46 0 -10 -4 -16 -8 -13 -4 2 -8 -47 -9 -110 -1 -63
2 -112 6 -110 4 3 14 -13 20 -36 7 -23 20 -52 28 -64 8 -13 12 -28 8 -34 -4
-6 -3 -10 2 -9 19 3 34 -2 28 -10 -3 -5 9 -21 27 -35 27 -22 30 -28 18 -36
-13 -9 -13 -10 0 -11 8 -1 21 -1 28 0 15 2 72 -30 72 -41 0 -4 7 -5 15 -2 8 4
15 1 15 -5 0 -6 7 -8 17 -4 10 4 14 2 10 -4 -4 -6 0 -13 8 -17 8 -3 15 -10 15
-16 0 -6 -4 -8 -10 -5 -6 3 -7 -1 -4 -9 3 -9 10 -14 14 -11 14 9 21 -14 11
-33 -7 -14 -6 -19 4 -19 7 0 11 6 8 14 -8 20 1 16 24 -11 l21 -24 -36 0 c-39
0 -117 19 -148 36 -11 6 -34 16 -51 22 -18 7 -33 16 -33 21 0 5 -5 9 -11 9
-20 0 -90 64 -84 77 2 8 0 11 -5 8 -10 -6 -70 47 -70 62 0 4 5 1 10 -7 5 -8
10 -10 10 -4 0 5 -7 19 -16 30 -8 10 -12 13 -8 5 5 -9 3 -12 -4 -7 -9 5 -9 13
-2 26 15 28 12 36 -6 14 -13 -16 -15 -16 -10 -1 3 9 1 17 -3 17 -11 0 -35 59
-32 78 1 6 -2 12 -7 12 -10 0 -11 6 -12 100 -2 67 0 73 36 120 21 28 44 48 51
46 7 -3 12 -1 10 4 -2 9 61 60 74 60 4 0 1 -12 -7 -27z"/>
<path d="M2420 2540 c-8 -5 -10 -10 -5 -10 6 0 17 5 25 10 8 5 11 10 5 10 -5
0 -17 -5 -25 -10z"/>
<path d="M3828 3652 c9 -10 19 -17 21 -16 6 5 -20 34 -30 34 -5 0 -1 -8 9 -18z"/>
<path d="M2785 3650 c-3 -5 -1 -10 4 -10 6 0 11 5 11 10 0 6 -2 10 -4 10 -3 0
-8 -4 -11 -10z"/>
<path d="M3211 3558 c7 -16 15 -28 19 -28 5 0 7 -6 7 -12 -1 -7 9 -44 21 -83
12 -38 28 -122 36 -187 15 -116 32 -166 79 -230 26 -35 39 -35 79 1 30 27 31
30 11 28 -12 0 -20 -4 -17 -8 2 -4 -3 -10 -12 -13 -10 -4 -13 -2 -8 7 6 9 5 9
-7 0 -13 -11 -20 -9 -37 10 -12 13 -19 27 -15 30 3 4 1 7 -5 7 -7 0 -12 8 -12
18 0 10 -7 27 -15 39 -9 13 -19 63 -25 120 -8 82 -30 177 -57 243 -4 8 -7 17
-7 20 -1 3 -11 19 -24 35 l-22 30 11 -27z"/>
<path d="M3895 3469 c6 -54 7 -149 2 -169 -8 -31 -21 -55 -33 -63 -7 -4 -11
-14 -8 -22 4 -8 10 -13 14 -10 8 5 -13 -64 -32 -105 -7 -14 -27 -46 -45 -71
-41 -59 -43 -75 -2 -29 44 51 94 154 114 238 19 79 17 244 -4 265 -8 8 -9 -1
-6 -34z"/>
<path d="M2167 3329 c-19 -30 -43 -72 -55 -94 -25 -50 -52 -177 -52 -242 1
-51 23 -169 35 -181 4 -4 3 7 -2 23 -13 48 -10 250 4 267 7 8 9 18 5 22 -4 4
-1 6 7 4 7 -1 16 3 19 11 2 8 0 11 -6 8 -17 -11 -6 46 20 100 14 29 28 50 32
46 4 -4 4 1 0 11 -6 15 -4 17 6 11 9 -6 11 -4 6 4 -5 7 0 21 10 32 9 10 14 22
11 25 -3 3 -21 -18 -40 -47z"/>
<path d="M2540 3349 c-14 -12 -44 -37 -67 -57 l-43 -35 0 -71 c0 -104 17 -223
46 -323 25 -88 81 -213 95 -213 5 0 -5 26 -20 58 -36 72 -76 206 -90 299 -14
89 -14 233 -1 253 7 10 10 -19 10 -91 0 -336 152 -633 398 -783 61 -37 132
-60 118 -38 -4 6 -14 8 -23 5 -11 -4 -14 -3 -9 5 5 8 1 10 -10 5 -13 -5 -15
-3 -9 8 4 8 5 11 0 7 -4 -4 -26 7 -49 25 -23 17 -34 23 -26 13 14 -18 14 -18
-7 -5 -19 11 -20 15 -8 22 8 4 19 6 23 3 4 -2 9 5 9 17 2 15 0 18 -6 9 -4 -8
-20 -15 -34 -16 -15 -2 -24 1 -21 5 3 5 -2 9 -10 9 -8 0 -20 9 -26 19 -12 24
-13 34 -1 26 5 -3 12 -1 15 4 4 5 -2 8 -11 6 -10 -1 -17 -10 -16 -20 1 -14 -3
-13 -23 6 -13 12 -22 25 -19 27 3 3 -10 20 -29 38 -19 18 -31 35 -28 38 3 3 0
6 -7 6 -7 0 -10 4 -7 9 3 4 -5 18 -19 31 -13 12 -27 35 -30 51 -4 16 -10 29
-15 29 -8 0 -18 22 -25 54 -1 6 -7 24 -14 40 -6 16 -9 36 -7 43 3 8 2 12 -3 9
-5 -3 -12 1 -15 10 -8 22 -8 26 4 19 6 -3 10 -1 10 4 0 6 -6 11 -13 11 -7 0
-13 8 -14 18 -1 9 -6 35 -12 57 -11 43 -21 242 -14 263 7 18 26 15 53 -10 14
-13 27 -21 30 -19 15 10 43 -54 52 -120 5 -41 16 -100 23 -132 8 -32 11 -65 8
-73 -3 -8 0 -14 6 -14 6 0 11 -9 11 -20 0 -11 5 -20 11 -20 6 0 8 -9 4 -21 -5
-15 -4 -19 4 -15 6 4 11 3 11 -3 0 -5 5 -22 12 -38 6 -15 11 -31 10 -35 -1 -5
2 -8 7 -8 13 0 51 -76 43 -85 -4 -4 -2 -6 3 -5 22 5 36 -1 29 -12 -4 -7 -3 -8
4 -4 7 4 12 3 12 -3 0 -5 -5 -13 -10 -16 -8 -5 -8 -11 -1 -19 6 -7 9 -15 6
-18 -3 -2 2 -5 10 -5 8 0 12 4 9 8 -2 4 0 10 6 14 6 3 13 0 16 -9 3 -9 12 -12
22 -9 9 4 14 3 10 -2 -4 -4 7 -17 25 -29 18 -12 38 -35 46 -51 8 -17 20 -35
26 -41 6 -7 23 -25 36 -41 14 -17 50 -47 80 -67 53 -37 55 -38 119 -31 280 29
494 247 503 513 1 34 6 62 11 62 24 0 10 -185 -16 -217 -6 -7 -8 -13 -5 -13
10 0 -40 -100 -62 -126 -12 -13 -21 -28 -21 -32 0 -5 -11 -18 -25 -30 -14 -12
-25 -27 -25 -33 0 -5 -5 -7 -12 -3 -7 5 -8 3 -3 -6 6 -10 4 -12 -9 -7 -10 4
-15 3 -11 -3 3 -6 2 -10 -3 -10 -4 0 -18 -9 -30 -21 -12 -11 -27 -17 -34 -13
-6 4 -8 3 -4 -4 3 -5 0 -12 -6 -15 -7 -2 -1 -4 14 -3 14 0 25 3 22 5 -2 2 16
19 40 37 150 114 240 314 222 488 l-8 66 -61 -55 c-34 -31 -80 -68 -103 -82
-32 -20 -47 -40 -64 -80 -32 -77 -108 -156 -188 -195 -59 -29 -75 -33 -147
-32 -93 1 -144 18 -226 74 -33 22 -59 36 -59 30 0 -17 106 -81 167 -100 32
-11 49 -19 37 -19 -50 -2 -153 44 -221 98 -125 98 -243 341 -243 500 0 74 -17
115 -64 159 -24 22 -53 43 -65 47 -25 8 -17 29 9 22 14 -3 17 -1 13 11 -4 10
-2 13 5 8 6 -3 13 -2 17 4 9 15 27 0 21 -17 -4 -10 -2 -13 8 -10 8 3 17 -1 20
-9 9 -22 7 -26 -6 -18 -7 4 -8 3 -4 -5 4 -6 12 -9 17 -6 5 4 10 1 10 -4 3 -20
5 -26 18 -49 7 -13 17 -65 21 -116 10 -97 48 -236 81 -289 22 -38 25 -28 5 16
-26 57 -46 128 -56 195 -5 37 -13 97 -19 134 -10 73 -39 142 -78 189 -29 34
-31 34 -63 8z m1157 -523 c-13 -9 -14 -11 -1 -21 12 -9 13 -19 3 -65 -13 -63
-42 -123 -54 -112 -5 4 -5 -1 -2 -11 4 -11 -1 -25 -12 -36 -11 -11 -17 -22
-13 -25 3 -3 -1 -6 -8 -6 -7 0 -11 -3 -7 -6 7 -7 -44 -60 -55 -57 -4 2 -16 -9
-26 -22 -11 -14 -25 -25 -32 -25 -6 0 -8 -4 -5 -10 3 -6 -1 -7 -9 -4 -9 3 -13
11 -9 18 4 6 -1 5 -10 -3 -9 -7 -17 -19 -17 -25 0 -6 4 -5 9 3 5 8 11 9 15 3
6 -9 -21 -27 -36 -24 -5 1 -8 -3 -8 -8 0 -7 -8 -6 -22 1 -22 12 -22 11 -8 -6
14 -17 14 -17 -7 -7 -16 9 -24 9 -29 0 -4 -7 -3 -8 4 -4 7 4 12 3 12 -1 0 -19
-116 -46 -191 -45 -37 1 -137 56 -138 76 -1 5 -12 19 -26 32 -17 16 -23 29
-18 41 6 16 5 16 -10 5 -14 -12 -16 -11 -14 6 1 17 4 18 24 9 15 -7 22 -16 18
-25 -4 -12 -3 -12 9 -3 10 8 21 9 33 3 35 -19 161 -14 236 10 40 12 75 21 80
20 4 -1 7 5 7 13 0 10 10 15 27 15 14 0 24 3 20 6 -9 9 24 39 42 39 10 0 15 8
13 19 -2 10 1 15 6 12 6 -3 13 6 16 20 4 13 17 29 29 34 12 5 17 9 10 9 -7 1
-10 8 -7 16 4 8 10 12 16 9 5 -3 8 2 6 12 -2 11 2 18 10 17 6 -2 12 1 12 6 0
5 -6 12 -12 14 -8 3 -7 6 4 6 9 1 20 6 24 13 5 7 3 8 -6 3 -9 -5 -11 -4 -6 3
4 7 12 12 18 12 16 0 68 47 60 54 -3 4 1 4 10 1 9 -4 18 1 23 12 6 14 8 15 13
3 3 -8 -2 -19 -11 -24z m-857 -224 c0 -13 -12 -22 -22 -16 -10 6 -1 24 13 24
5 0 9 -4 9 -8z"/>
<path d="M3620 2621 c0 -6 4 -13 10 -16 6 -3 7 1 4 9 -7 18 -14 21 -14 7z"/>
<path d="M3549 2513 c-13 -16 -12 -17 4 -4 16 13 21 21 13 21 -2 0 -10 -8 -17
-17z"/>
<path d="M3443 2465 c0 -7 6 -11 14 -8 7 3 13 6 13 8 0 2 -6 5 -13 8 -8 3 -14
-1 -14 -8z"/>
<path d="M3288 2353 c7 -3 16 -2 19 1 4 3 -2 6 -13 5 -11 0 -14 -3 -6 -6z"/>
<path d="M2567 3205 c3 -8 9 -12 14 -9 12 7 11 11 -5 17 -10 4 -13 1 -9 -8z"/>
<path d="M3447 3109 c7 -7 15 -10 18 -7 3 3 -2 9 -12 12 -14 6 -15 5 -6 -5z"/>
<path d="M3544 2998 l-19 -23 23 19 c21 18 27 26 19 26 -2 0 -12 -10 -23 -22z"/>
<path d="M3570 2991 c0 -6 4 -13 10 -16 6 -3 7 1 4 9 -7 18 -14 21 -14 7z"/>
<path d="M3369 2603 c-13 -16 -12 -17 4 -4 16 13 21 21 13 21 -2 0 -10 -8 -17
-17z"/>
<path d="M2743 2535 c0 -8 4 -12 9 -9 5 3 6 10 3 15 -9 13 -12 11 -12 -6z"/>
<path d="M2790 2390 c63 -53 155 -97 252 -121 63 -15 263 -8 280 10 11 11 7
12 -22 6 -96 -21 -220 -9 -252 23 -15 15 -41 16 -32 1 13 -22 -61 3 -156 53
-52 27 -84 40 -70 28z"/>
<path d="M3435 2330 c-3 -5 -1 -10 4 -10 6 0 11 5 11 10 0 6 -2 10 -4 10 -3 0
-8 -4 -11 -10z"/>
<path d="M3355 2299 c-11 -16 -1 -19 13 -3 7 8 8 14 3 14 -5 0 -13 -5 -16 -11z"/>
</g>
</svg>
